<svg xmlns="http://www.w3.org/2000/svg" viewBox="0 0 500 83.078" height="88.616" width="533.333"><path d="M196.12 7.619c0-4.212 3.4-7.619 7.585-7.619 4.2 0 7.612 3.407 7.612 7.619 0 4.207-3.413 7.617-7.612 7.617-4.185 0-7.585-3.41-7.585-7.617" fill="#273b7d"/><path d="M316.022 58.296c0-4.214 3.398-7.624 7.583-7.624 4.198 0 7.61 3.41 7.61 7.624 0 4.203-3.412 7.617-7.61 7.617-4.185 0-7.583-3.414-7.583-7.617" fill="#499fdd"/><path d="M71.4 55.003c-6.545 0-11.093-5.198-11.093-12.626 0-7.425 4.548-12.62 11.093-12.62 6.582 0 11.18 5.195 11.18 12.62 0 7.545-4.502 12.626-11.18 12.626zm0-36.342c-13.846 0-23.895 9.977-23.895 23.716 0 13.74 10.049 23.715 23.895 23.715 13.898 0 23.989-9.975 23.989-23.715 0-13.739-10.09-23.716-23.989-23.716m110.002 24.903c-.538-1.013-1.155-1.87-1.812-2.551l-.42-.445.441-.422a18.986 18.986 0 0 0 1.912-2.385l12.22-18.165h-14.834l-9.18 14.21c-.52.761-1.57 1.146-3.14 1.146h-2.093V8.088c0-5.373-3.347-6.104-6.964-6.104h-6.19l.01 63.41h13.144V46.372h1.231c1.499 0 2.519.173 2.987.987l7.25 13.686c2.026 3.714 4.044 4.347 7.841 4.347h10.073l-7.502-12.409-4.974-9.42M245.21 18.56c-6.685 0-10.951 2.97-13.342 5.481l-.798.807-.282-1.097c-.702-2.69-3.069-4.171-6.631-4.171h-5.89l.036 45.797h13.054V44.27c0-2.064.269-3.855.814-5.489 1.453-4.945 5.507-8.02 10.573-8.02 4.075 0 5.667 2.15 5.667 7.708v19.946c0 4.743 2.194 6.962 6.94 6.962h6.213l-.021-29.127c0-11.573-5.644-17.69-16.33-17.69m-41.335 1.04h-6.187l.042 35.41h-.004v10.378h6.605c.083 0 .15.009.233.009l3.076-.01h3.062v-.017h.021l.027-38.817c0-4.684-2.24-6.953-6.87-6.953m-81.207 35.403c-6.544 0-11.101-5.198-11.101-12.626 0-7.425 4.557-12.62 11.101-12.62 6.569 0 11.18 5.195 11.18 12.62 0 7.545-4.501 12.626-11.18 12.626zm0-36.342c-13.86 0-23.91 9.977-23.91 23.716 0 13.74 10.05 23.715 23.91 23.715 13.884 0 23.991-9.975 23.991-23.715 0-13.739-10.107-23.716-23.99-23.716" fill="#273b7d"/><path d="M402.496 55.003c-6.542 0-11.102-5.198-11.102-12.626 0-7.425 4.56-12.62 11.102-12.62 6.57 0 11.183 5.195 11.183 12.62 0 7.545-4.503 12.626-11.183 12.626zm0-36.342c-13.857 0-23.908 9.977-23.908 23.716 0 13.74 10.05 23.715 23.908 23.715 13.885 0 23.99-9.975 23.99-23.715 0-13.739-10.105-23.716-23.99-23.716" fill="#499fdd"/><path d="M289.068 52.988c-7.137 0-9.677-6.227-9.677-12.062 0-2.571.65-10.95 8.991-10.95 4.146 0 9.67 1.188 9.67 11.381 0 9.614-4.889 11.631-8.984 11.631zm15.762-33.51c-2.477 0-4.384.987-5.339 2.79l-.36.7-.606-.524c-2.107-1.824-5.885-3.987-12.02-3.987-12.207 0-20.425 9.168-20.425 22.812 0 13.627 8.503 23.151 20.67 23.151 4.156 0 7.44-.97 10.044-2.94l1.007-.757v1.272c0 6.117-3.956 9.492-11.126 9.492-3.485 0-6.657-.849-8.779-1.618-2.77-.836-4.393-.144-5.516 2.634l-1.036 2.564-1.466 3.744.908.484c4.59 2.436 10.564 3.89 15.964 3.89 11.118 0 24.1-5.692 24.1-21.706l.047-42.002h-6.065M22.783 54.478l-10.627-.011V41.762c0-2.715 1.053-4.127 3.38-4.452h7.247c5.172 0 8.514 3.262 8.518 8.54-.004 5.416-3.263 8.624-8.518 8.628zM12.156 20.205V16.86c0-2.927 1.238-4.319 3.956-4.497h5.438c4.663 0 7.456 2.79 7.456 7.46 0 3.56-1.912 7.714-7.285 7.714h-9.565v-7.333zm24.198 12.68l-1.92-1.08 1.676-1.434c1.95-1.677 5.22-5.447 5.22-11.96 0-9.967-7.73-16.4-19.696-16.4H7.98v-.004H6.425A6.664 6.664 0 0 0 0 8.592v56.57h6.266c.016.004.022 0 .027.004l15.611-.004c13.301 0 21.886-7.24 21.886-18.454 0-6.037-2.775-11.199-7.438-13.824" fill="#273b7d"/><path d="M484.8 18.708c-5.416 0-10.652 2.537-14.013 6.79l-.946 1.2-.742-1.342c-2.418-4.41-6.58-6.648-12.366-6.648-6.068 0-10.138 3.385-12.028 5.398l-1.237 1.34-.476-1.762c-.69-2.537-2.948-3.934-6.37-3.934h-5.487l-.053 45.62h12.467V45.232c0-1.764.219-3.51.66-5.335 1.192-4.866 4.462-10.1 9.96-9.576 3.39.325 5.046 2.944 5.046 8.005V65.37h12.555V45.232c0-2.205.206-3.855.703-5.51 1.01-4.646 4.425-9.409 9.729-9.409 3.838 0 5.258 2.174 5.258 8.013v20.375c0 4.609 2.056 6.669 6.661 6.669h5.868L500 36.246c0-11.634-5.122-17.538-15.202-17.538M371.37 49.53c-.037.046-5.402 5.702-12.465 5.702-6.435 0-12.936-3.948-12.936-12.762 0-7.61 5.04-12.93 12.255-12.93 2.344 0 5.008.84 5.425 2.252l.062.238c.96 3.202 3.87 3.373 4.441 3.373l6.83.007v-5.97c0-7.876-10.016-10.732-16.758-10.732-14.414 0-24.874 10.036-24.874 23.857 0 13.815 10.346 23.837 24.61 23.837 12.377 0 19.108-8.135 19.17-8.216l.36-.44-5.41-8.974-.71.758" fill="#499fdd"/></svg>