<svg width="292" height="75" viewBox="0 0 292 75" xmlns="http://www.w3.org/2000/svg" xmlns:xlink="http://www.w3.org/1999/xlink"><defs><path id="a" d="M53.3 75H.06V.766h106.481V75z"/></defs><g fill="none" fill-rule="evenodd"><path fill="#099CEC" d="M8.35 36.766h11v-10h-11zm13 0h11v-10h-11zm13 0h11v-10h-11zm13 0h11v-10h-11zm13 0h11v-10h-11zm-39-12h11v-10h-11zm13 0h11v-10h-11zm13 0h11v-10h-11zm0-12h11v-10h-11z"/><path d="M104.113 29.853c-2.257-1.52-8.189-2.168-12.502-1.007-.231-4.296-2.447-7.916-6.5-11.073l-1.5-1.007-1 1.51c-1.964 2.982-2.793 6.957-2.5 10.57.232 2.226 1.006 4.728 2.5 6.544-1.144.889-4.703 2.608-9.5 2.517h-71.5c-1.271 7.55.907 36.242 34 36.242 24.57 0 44.757-11.049 54-34.229 3.042.05 11.072.545 15-7.047.096-.128 1-2.014 1-2.014l-1.498-1.006" fill="#099CEC"/><path d="M28.028 60.517c-8.158 2.83-16.942 3.239-18.778 3.157 6.12 5.103 17.024 14.734 35 9.235-3.283-.891-11.026-3.876-16.222-12.392" fill="#FFF"/><path d="M27.117 58.755c-3.925 2.24-8.474 3.498-13.3 3.498-2.445 0-4.813-.325-7.067-.934l1.428 2.399c1.824.359 3.709.549 5.639.549 5.201 0 10.05-1.36 14.276-3.75a23.65 23.65 0 0 1-.976-1.762" fill="#026FB6"/><path d="M34.727 57.449c1.919 0 3.476-1.566 3.476-3.5 0-1.932-1.557-3.5-3.476-3.5-1.92 0-3.477 1.568-3.477 3.5 0 1.934 1.557 3.5 3.477 3.5" fill="#FFF"/><path d="M35.25 52.967c0-.321.158-.595.391-.778a1.95 1.95 0 0 0-.905-.229 1.994 1.994 0 0 0-1.986 2c0 1.105.89 2 1.986 2a1.994 1.994 0 0 0 1.988-2l-.012-.115a.97.97 0 0 1-.462.128c-.553 0-1-.45-1-1.006" fill="#4D5C64"/><path d="M103.823 29.674c-1.544-.878-4.361-1.422-7.27-1.422-1.694 0-3.418.184-4.942.594-.005-.09-.01-.181-.017-.271 1.372-.363 2.948-.525 4.52-.525 3.129 0 6.244.642 7.709 1.624" fill="#F6F6F6"/><path d="M40.585 73.847a39.53 39.53 0 0 0 3.665-.938c-1.538-.417-4.054-1.294-6.828-2.983 22.858-.557 39.594-12.288 52.973-39.979l.918-1.294c.092-.027.186-.053.281-.078.007.09.012.181.017.271 1.524-.41 3.248-.594 4.942-.594 2.909 0 5.726.544 7.27 1.422l.002.001 1.511 1.024-.761 1.61c-3.468 7.029-10.998 7.558-14.523 7.558-.287 0-.547-.004-.777-.007-8.642 21.401-26.596 32.439-48.69 33.987" fill="#F6F6F6"/><path d="M40.585 73.847a39.53 39.53 0 0 0 3.665-.938c-1.538-.417-4.054-1.294-6.828-2.983 22.858-.557 39.594-12.288 52.973-39.979l.918-1.294c.092-.027.186-.053.281-.078.007.09.012.181.017.271 1.524-.41 3.248-.594 4.942-.594 2.909 0 5.726.544 7.27 1.422l.002.001 1.511 1.024-.761 1.61c-3.468 7.029-10.998 7.558-14.523 7.558-.287 0-.547-.004-.777-.007-8.642 21.401-26.596 32.439-48.69 33.987" fill="#0996E3"/><path d="M23.317 72.663c-6.812-1.756-11.653-5.04-15.078-8.933.345.067.693.128 1.042.183 3.062 3.478 7.229 6.453 12.856 8.285.386.161.78.317 1.18.465" fill="#F6F6F6"/><path d="M22.137 72.198c-5.627-1.832-9.794-4.807-12.856-8.285l.312.048c3.002 2.509 7.102 5.964 12.544 8.237" fill="#F6F6F6"/><path d="M22.137 72.198c-5.627-1.832-9.794-4.807-12.856-8.285l.312.048c3.002 2.509 7.102 5.964 12.544 8.237" fill="#0996E3"/><path d="M8.068 63.533C.563 54.837.007 43.208.312 38.72h1.186c-.529 4.638.127 14.582 5.867 22.758a30.756 30.756 0 0 1-.615-.159l1.318 2.214" fill="#F6F6F6"/><path d="M13.258 62.247a27.11 27.11 0 0 1-5.893-.769C1.625 53.302.969 43.358 1.498 38.72h2.815c.946 9.657 3.191 17.93 8.945 23.527" fill="#F6F6F6"/><path d="M13.258 62.247a27.11 27.11 0 0 1-5.893-.769C1.625 53.302.969 43.358 1.498 38.72h2.815c.946 9.657 3.191 17.93 8.945 23.527" fill="#0996E3"/><path d="M35.075 74.037c-4.457 0-8.354-.496-11.758-1.374-.4-.148-.794-.304-1.18-.465-5.442-2.273-9.542-5.728-12.544-8.237a29.269 29.269 0 0 0 5.987.253c4.902 3.611 11.853 5.687 21.733 5.715l.109-.003c2.774 1.689 5.29 2.566 6.828 2.983a39.53 39.53 0 0 1-3.665.938c-1.809.127-3.648.19-5.51.19" fill="#F6F6F6"/><path d="M35.075 74.037c-4.457 0-8.354-.496-11.758-1.374-.4-.148-.794-.304-1.18-.465-5.442-2.273-9.542-5.728-12.544-8.237a29.269 29.269 0 0 0 5.987.253c4.902 3.611 11.853 5.687 21.733 5.715l.109-.003c2.774 1.689 5.29 2.566 6.828 2.983a39.53 39.53 0 0 1-3.665.938c-1.809.127-3.648.19-5.51.19" fill="#F5F5F5"/><path d="M13.817 64.267c-1.435 0-2.845-.105-4.224-.306l-.312-.048a29.823 29.823 0 0 1-1.042-.183l-.171-.197-1.318-2.214a27.11 27.11 0 0 0 6.508.928c.719.699 1.49 1.355 2.322 1.967-.583.035-1.17.053-1.763.053" fill="#F6F6F6"/><path d="M13.817 64.267c-1.435 0-2.845-.105-4.224-.306l-.312-.048a29.823 29.823 0 0 1-1.042-.183l-.171-.197-1.318-2.214a27.11 27.11 0 0 0 6.508.928c.719.699 1.49 1.355 2.322 1.967-.583.035-1.17.053-1.763.053" fill="#026BAF"/><path fill="#066DA5" d="M10.35 34.766h1v-6h-1zm3 0h1v-6h-1zm3 0h1v-6h-1zm7 0h1v-6h-1zm3 0h1v-6h-1zm3 0h1v-6h-1zm7 0h1v-6h-1zm3 0h1v-6h-1zm3 0h1v-6h-1zm7 0h1v-6h-1zm3 0h1v-6h-1zm3 0h1v-6h-1zm7 0h1v-6h-1zm3 0h1v-6h-1zm3 0h1v-6h-1zm-42-12h1v-6h-1zm3 0h1v-6h-1zm7 0h1v-6h-1zm3 0h1v-6h-1zm3 0h1v-6h-1zm7 0h1v-6h-1zm3 0h1v-6h-1zm3 0h1v-6h-1zm-3-12h1v-6h-1zm-3 0h1v-6h-1zm6 0h1v-6h-1z"/><mask id="b" fill="#fff"><use xlink:href="#a"/></mask><path fill="#066DA5" mask="url(#b)" d="M23.35 22.766h1v-6h-1z"/><path d="M103.861 31.3c-.123.252-.228.465-.309.625-.044.086-.079.155-.176.328-1.484 2.868-3.665 4.664-6.43 5.636-2.189.769-4.173.941-7.147.88a92.996 92.996 0 0 0-.52-.011l-.688-.011-.256.643c-8.749 21.938-27.853 33.596-53.072 33.596-14.417 0-23.825-5.46-29.015-14.775-2.003-3.594-3.276-7.628-3.873-11.756-.414-2.864-.471-5.643-.242-7.697H6.35v.008h67v-.02c3.962-.044 7.665-1.27 9.524-2.714l.819-.637-.661-.803c-1.238-1.504-2.036-3.708-2.275-6.005-.283-3.505.566-7.218 2.339-9.91l.444-.67.639.428c3.882 3.033 5.874 6.402 6.085 10.311l.067 1.239 1.191-.321c3.893-1.049 9.595-.537 11.687.871l.772.519c-.035.073-.07.146-.12.246zM8.35 36.745h11v-9.979h-11v9.979zm13 0h11v-9.979h-11v9.979zm0-11.979h11v-10h-11v10zm13 11.979h11v-9.979h-11v9.979zm0-11.979h11v-10h-11v10zm13 11.979h11v-9.979h-11v9.979zm0-11.979h11v-10h-11v10zm0-12h11v-10h-11v10zm13 23.979h11v-9.979h-11v9.979zm45.321-4.586c.108-.222.225-.46.339-.699l.153-.317.378-.789-2.222-1.494c-2.402-1.616-7.879-2.225-12.17-1.403-.553-4.045-2.822-7.556-6.802-10.658l-2.362-1.584-1.554 2.348c-2.033 3.086-2.986 7.249-2.665 11.21.236 2.272.939 4.464 2.065 6.199-1.701.949-4.495 1.725-7.481 1.765V24.766h-13v-24h-15v12h-26v12h-13v11.979H.418l-.142.839c-.388 2.312-.383 5.686.12 9.161.629 4.361 1.977 8.628 4.108 12.451C10.05 69.151 20.127 75 35.263 75c25.754 0 45.481-11.891 54.667-34.215 3.102.056 5.247-.142 7.676-.995 3.216-1.132 5.795-3.25 7.525-6.571.097-.16.238-.444.54-1.06z" fill="#066DA5" mask="url(#b)"/><path d="M185.947 43.727a9.663 9.663 0 0 1 3.009-2.035 9.144 9.144 0 0 1 3.679-.745c1.182 0 2.274.199 3.277.597 1.003.398 1.961.985 2.874 1.762a2.828 2.828 0 0 0 1.826.651c.806 0 1.473-.271 2.001-.813.529-.543.792-1.221.792-2.035 0-.849-.322-1.563-.967-2.142-2.756-2.459-6.025-3.688-9.803-3.688-4.154 0-7.699 1.483-10.636 4.448-2.936 2.965-4.404 6.544-4.404 10.739 0 4.194 1.468 7.773 4.404 10.738 2.937 2.965 6.482 4.447 10.636 4.447 3.761 0 7.028-1.229 9.803-3.687.591-.597.887-1.293.887-2.089 0-.813-.264-1.486-.793-2.019-.527-.534-1.194-.801-2.001-.801-.679.018-1.27.218-1.772.596-.896.778-1.844 1.361-2.847 1.75s-2.095.584-3.277.584a9.146 9.146 0 0 1-3.679-.747 9.626 9.626 0 0 1-3.009-2.034 9.456 9.456 0 0 1-2.027-3.023 9.397 9.397 0 0 1-.739-3.715c0-1.32.247-2.559.739-3.716a9.456 9.456 0 0 1 2.027-3.023zm46.628-5.627c0-.38-.076-.741-.228-1.085a3.153 3.153 0 0 0-.605-.909 2.644 2.644 0 0 0-.886-.61 2.798 2.798 0 0 0-1.101-.217c-.555 0-1.057.145-1.504.434l-16.062 10.549V25.11c0-.796-.273-1.469-.819-2.021a2.679 2.679 0 0 0-1.974-.827c-.788 0-1.455.276-2 .827-.547.552-.82 1.225-.82 2.021v37.695c0 .777.273 1.446.82 2.006.545.56 1.212.84 2 .84.77 0 1.428-.28 1.974-.84.546-.56.819-1.229.819-2.006v-9.79l3.277-2.17 12.409 14.075c.501.487 1.128.731 1.88.731.393 0 .761-.072 1.101-.216.34-.145.636-.348.886-.611.251-.261.452-.564.605-.908.152-.344.228-.705.228-1.085 0-.741-.26-1.4-.779-1.979l-11.549-13.125 11.254-7.377c.716-.488 1.074-1.238 1.074-2.25zm-64.476 16.04a9.797 9.797 0 0 1-2.015 3.024 9.565 9.565 0 0 1-2.994 2.061 9.014 9.014 0 0 1-3.68.76 9.08 9.08 0 0 1-3.707-.76 9.485 9.485 0 0 1-2.98-2.048 9.677 9.677 0 0 1-2.001-3.024 9.304 9.304 0 0 1-.74-3.687c0-1.302.247-2.531.74-3.689a9.673 9.673 0 0 1 2.001-3.023 9.502 9.502 0 0 1 2.98-2.048c1.147-.506 2.382-.759 3.707-.759 1.307 0 2.533.253 3.68.759a9.582 9.582 0 0 1 2.994 2.061 9.797 9.797 0 0 1 2.015 3.024 9.23 9.23 0 0 1 .739 3.675 9.226 9.226 0 0 1-.739 3.674zm1.947-14.413c-2.972-2.965-6.518-4.448-10.636-4.448-4.154 0-7.699 1.483-10.636 4.448-2.936 2.965-4.405 6.544-4.405 10.739 0 4.194 1.469 7.773 4.405 10.738 2.937 2.965 6.482 4.447 10.636 4.447 4.118 0 7.664-1.482 10.636-4.447 2.936-2.928 4.405-6.508 4.405-10.738-.018-2.098-.389-4.041-1.115-5.831-.725-1.79-1.821-3.426-3.29-4.908zm71.555 7.919a8.795 8.795 0 0 1 1.316-2.726 9.325 9.325 0 0 1 2.095-2.115 9.74 9.74 0 0 1 2.659-1.37 9.266 9.266 0 0 1 2.981-.488c1.021 0 2.01.162 2.968.488a9.598 9.598 0 0 1 4.727 3.485 9.12 9.12 0 0 1 1.356 2.726h-18.102zm19.687-7.919c-2.973-2.965-6.517-4.448-10.636-4.448-4.154 0-7.7 1.483-10.636 4.448-2.937 2.965-4.405 6.544-4.405 10.739 0 4.194 1.468 7.773 4.405 10.738 2.936 2.965 6.482 4.447 10.636 4.447 3.778 0 7.055-1.229 9.83-3.687.538-.561.806-1.238.806-2.034 0-.814-.265-1.487-.792-2.021-.528-.533-1.195-.799-2.001-.799a2.91 2.91 0 0 0-1.853.705 8.898 8.898 0 0 1-2.74 1.627c-.985.361-2.068.543-3.25.543a9.258 9.258 0 0 1-2.995-.489 9.625 9.625 0 0 1-2.632-1.37 9.479 9.479 0 0 1-2.082-2.115 9.31 9.31 0 0 1-1.342-2.725h21.272c.787 0 1.454-.266 2.001-.801.546-.533.818-1.206.818-2.019 0-2.098-.366-4.045-1.1-5.844-.735-1.8-1.836-3.431-3.304-4.895zM134.82 54.14a9.812 9.812 0 0 1-2.014 3.024 9.57 9.57 0 0 1-2.995 2.061 9.01 9.01 0 0 1-3.68.76c-1.324 0-2.561-.254-3.706-.76a9.494 9.494 0 0 1-2.982-2.048 9.712 9.712 0 0 1-2.001-3.024 9.32 9.32 0 0 1-.738-3.687c0-1.302.246-2.531.738-3.689a9.708 9.708 0 0 1 2.001-3.023 9.51 9.51 0 0 1 2.982-2.048c1.145-.506 2.382-.759 3.706-.759a9.01 9.01 0 0 1 3.68.759 9.586 9.586 0 0 1 2.995 2.061 9.812 9.812 0 0 1 2.014 3.024 9.214 9.214 0 0 1 .739 3.675 9.209 9.209 0 0 1-.739 3.674zm3.532-31.878c-.806 0-1.473.267-2.001.801-.529.533-.792 1.206-.792 2.02v13.532c-2.722-2.224-5.865-3.336-9.428-3.336-4.153 0-7.699 1.483-10.636 4.448-2.936 2.965-4.404 6.544-4.404 10.739 0 4.194 1.468 7.773 4.404 10.738 2.937 2.965 6.483 4.447 10.636 4.447 4.119 0 7.664-1.482 10.637-4.447 2.936-2.928 4.404-6.508 4.404-10.738V25.083c0-.814-.273-1.487-.819-2.02-.546-.534-1.213-.801-2.001-.801zm152.401 14.915c-.501-.488-1.133-.872-1.894-1.152a10.97 10.97 0 0 0-2.498-.583 21.477 21.477 0 0 0-2.538-.163c-1.79 0-3.473.289-5.049.868a15.354 15.354 0 0 0-4.378 2.495V38.1c0-.778-.273-1.442-.819-1.994a2.68 2.68 0 0 0-1.974-.827c-.789 0-1.456.276-2.001.827a2.733 2.733 0 0 0-.82 1.994v24.731c0 .778.274 1.442.82 1.993.545.552 1.212.827 2.001.827.77 0 1.427-.275 1.974-.827a2.728 2.728 0 0 0 .819-1.993V50.466c0-1.32.247-2.559.739-3.716a9.57 9.57 0 0 1 2.014-3.023 9.498 9.498 0 0 1 2.995-2.035 9.148 9.148 0 0 1 3.679-.745c1.325 0 2.552.226 3.68.678.448.199.842.298 1.182.298.394 0 .76-.072 1.101-.217.34-.144.636-.347.886-.61.251-.262.452-.565.604-.908.153-.344.229-.714.229-1.112 0-.778-.251-1.41-.752-1.899z" fill="#066DA5"/></g></svg>