<svg width="208" height="35" viewBox="0 0 208 35" xmlns="http://www.w3.org/2000/svg"><path d="M10.015 34.57H0V.565h17.321L37.193 25.95V.566h10.015v34.003h-16.97L10.015 8.75v25.82m85.111-10.516c0 4.727-.837 6.357-2.223 7.92C90.78 34.298 87.688 35 81.731 35h-17.1c-5.957 0-9.053-.7-11.175-3.027-1.386-1.562-2.223-3.192-2.223-7.919V10.946c0-4.724.837-6.352 2.223-7.917C55.58.701 58.674 0 64.631 0h17.1c5.957 0 9.048.7 11.172 3.03 1.386 1.564 2.223 3.192 2.223 7.916v13.108M81.31 26.385c2.288 0 3.094-.135 3.642-.633.513-.465.739-1.065.739-3.063V12.31c0-1.998-.226-2.593-.739-3.06-.548-.501-1.354-.633-3.642-.633H65.05c-2.289 0-3.095.132-3.64.633-.515.467-.742 1.062-.742 3.06v10.38c0 1.998.227 2.598.741 3.063.546.498 1.352.633 3.64.633h16.26M109.682.565V34.57H99.216V.566h10.465m17.68 0h13.816L122.53 16.47l21.032 18.1h-14.784l-19.097-17.734 17.68-16.27m18.13 0h10.467v34.003h-10.467m50.37 0l-3.097-5.923h-20.251l-3.06 5.92H157.89l18.551-34h13.01L208 34.569h-12.14m-19.71-13.308h13.013L182.655 8.95l-6.505 12.31" fill="#1C4598"/></svg>