<svg width="347" height="78" viewBox="0 0 347 78" xmlns="http://www.w3.org/2000/svg"><g fill="none" fill-rule="evenodd"><path d="M0 39.12c0-5.313 4.305-9.62 9.614-9.62 5.309 0 9.615 4.307 9.615 9.618 0 5.313-4.306 9.62-9.615 9.62-5.31 0-9.614-4.307-9.614-9.62zm67.533 9.619c-5.31 0-9.614-4.307-9.614-9.62 0-5.311 4.304-9.618 9.614-9.618 5.31 0 9.615 4.307 9.615 9.618 0 5.313-4.306 9.62-9.615 9.62zm0-48.094c-21.239 0-38.457 17.226-38.457 38.474 0 21.25 17.218 38.476 38.458 38.476s38.458-17.225 38.458-38.476c0-21.248-17.218-38.474-38.458-38.474z" fill="#CA2437"/><path d="M342.396 36.142c.607 0 .967-.272.967-.767 0-.448-.247-.742-.923-.742h-.63v1.51h.586zm-1.508-2.272h1.709c.945 0 1.755.381 1.755 1.462 0 .538-.338 1.058-.832 1.236l1.036 1.87h-1.036l-.789-1.575h-.92v1.575h-.923V33.87zm4.97 2.339c0-2.114-1.462-3.623-3.349-3.623-1.89 0-3.33 1.509-3.33 3.623 0 2.138 1.44 3.6 3.33 3.6 1.887 0 3.35-1.462 3.35-3.6zm-7.58 0c0-2.633 1.911-4.434 4.231-4.434 2.338 0 4.25 1.8 4.25 4.434 0 2.633-1.912 4.434-4.25 4.434-2.32 0-4.232-1.8-4.232-4.434zm-28.223 17.998a1.06 1.06 0 0 0 1.051-1.045V49.3c0-.57-.475-1.045-1.044-1.045h-.169c-.471 0-.943-.469-.943-.941l.001-.17V24.43c0-.523-.522-1.045-1.044-1.045h-3.845c-.522 0-1.044.522-1.044 1.045v25.35l.016.66c0 1.887 1.886 3.773 3.771 3.773l3.25-.006zM140.86 29.431c5.23 0 9.644 4.431 9.644 9.687 0 5.302-4.328 9.608-9.644 9.608-5.292 0-9.595-4.306-9.595-9.608 0-5.342 4.303-9.687 9.595-9.687zm0-6.103c-8.654 0-15.694 7.084-15.694 15.79 0 8.808 6.89 15.71 15.694 15.71 8.829 0 15.743-6.902 15.743-15.71 0-8.706-7.065-15.79-15.743-15.79zM266.104 47.95c-.285.807-1.993 2.327-3.94 2.327-2.04 0-3.18-1.235-3.18-3.087 0-1.946 1.377-3.134 3.893-3.134 1.755 0 3.227.665 3.227.665v3.229zm-2.563-16.193c-3.56 0-7.025.902-7.5 1.093-.474.142-.902.521-.711 1.329l.475 2.47c.094.664.521 1.186 1.234.949 1.281-.38 4.176-.808 6.17-.808 2.325 0 3.132 1.33 3.037 4.132 0 0-1.993-.617-4.224-.617-5.553 0-8.733 2.991-8.733 6.885 0 4.701 3.037 7.503 7.404 7.503 3.418 0 5.601-1.52 6.883-2.754v1.179c0 .57.475 1.045 1.044 1.045h.387c.04.008.087.008.135.008h1.614c.57 0 1.044-.475 1.044-1.045V41.302c0-5.983-1.424-9.545-8.259-9.545zm-39.846 0c-4.201 0-6.242 2.256-7.057 3.166v-1.646c0-.57-.475-1.045-1.044-1.045h-2.484c-.522 0-1.044.427-1.044 1.045v19.849c0 .57.522 1.045 1.044 1.045h3.512c1.045 0 1.377-.238 1.377-1.045V40.589c.522-1.52 1.898-3.419 4.746-3.419 2.658 0 3.797 1.758 3.797 4.607v11.349c0 .57.475 1.045 1.045 1.045h3.844c.523 0 1.044-.475 1.044-1.045v-11.35c0-5.318-1.803-10.019-8.78-10.019zM171.436 49.28c-2.753 0-4.556-1.235-4.556-1.235v-7.836c.474-1.234 1.993-3.039 4.841-3.039 3.418 0 5.173 2.992 5.173 6.079 0 3.086-1.85 6.03-5.458 6.03zm1.092-17.523c-4.51 0-7.01 3.079-7.16 3.268v-1.748c0-.57-.474-1.045-1.044-1.045h-2.333c-.57 0-1.044.475-1.044 1.045v28.776c0 .522.474 1.045 1.044 1.045h3.844c.523 0 1.045-.523 1.045-1.045V53.79c.996.38 3.085.902 5.268.902 6.55 0 10.87-5.033 10.87-11.444 0-6.648-4.51-11.492-10.49-11.492zm156.527 8.688c-.095-2.136-1.803-3.798-4.224-3.798-2.658 0-4.366 1.614-4.65 3.798h8.874zm-4.08-8.689c5.694 0 10.06 4.227 10.06 10.162 0 .332-.047 1.092-.094 1.425-.048.57-.57.997-1.044.997h-14.05c.048 2.706 2.279 5.08 5.46 5.08 2.182 0 3.701-.807 4.698-1.614.522-.428 1.09-.475 1.424 0l1.85 2.469c.38.427.427.95-.094 1.424-1.899 1.615-4.604 2.992-8.164 2.992-6.55 0-11.106-5.223-11.106-11.491 0-6.173 4.557-11.444 11.06-11.444zM287.826 49.28c-2.848 0-4.367-1.805-4.841-3.04v-7.834s1.803-1.236 4.556-1.236c3.608 0 5.459 2.945 5.459 6.032 0 3.086-1.756 6.078-5.174 6.078zm.522-17.523c-2.183 0-4.366.523-5.363.95V24.35c0-.523-.475-1.045-1.045-1.045h-3.844c-.523 0-1.044.522-1.044 1.045v28.776c0 .57.521 1.045 1.044 1.045h1.66c.032 0 .065 0 .096-.008h.444c.576 0 1.051-.475 1.051-1.045v-1.623l.024-.078s2.515 3.276 7.31 3.276c5.98 0 10.299-5.224 10.299-11.491 0-6.412-4.13-11.445-10.632-11.445zm-33.581-8.452h-22.325a.902.902 0 0 0-.902.902v3.894c0 .474.38.902.902.902h8.053v24.265c0 .475.427.903.902.903h4.415c.474 0 .901-.428.901-.903V29.003h8.054a.902.902 0 0 0 .901-.902v-3.894a.902.902 0 0 0-.901-.902zm-53.145 17.14c-.096-2.136-1.804-3.798-4.225-3.798-2.657 0-4.367 1.614-4.65 3.798h8.875zm-4.082-8.689c5.696 0 10.062 4.227 10.062 10.162 0 .332-.047 1.092-.094 1.425-.049.57-.57.997-1.045.997h-14.05c.049 2.706 2.28 5.08 5.46 5.08 2.183 0 3.702-.807 4.698-1.614.522-.428 1.092-.475 1.424 0l1.851 2.469c.38.427.427.95-.096 1.424-1.898 1.615-4.603 2.992-8.163 2.992-6.55 0-11.106-5.223-11.106-11.491 0-6.173 4.556-11.444 11.059-11.444z" fill="#1C1D1B"/></g></svg>