<svg width="58" height="64" viewBox="0 0 1163 1442" xmlns="http://www.w3.org/2000/svg"><g fill="none" fill-rule="evenodd"><path d="M0 1441.046v-161.508h65.835c9.662 0 18.294 1.352 25.896 4.055 7.603 2.703 14.044 6.513 19.324 11.431 5.28 4.918 9.344 10.794 12.19 17.626 2.846 6.833 4.269 14.417 4.269 22.751v.45c0 9.386-1.685 17.608-5.056 24.666-3.37 7.058-8.014 12.97-13.93 17.739-5.918 4.768-12.827 8.353-20.729 10.756-7.901 2.402-16.384 3.604-25.446 3.604H35.389v48.43H0zm35.39-80.078h28.086c8.913 0 15.822-2.347 20.728-7.04 4.906-4.692 7.359-10.493 7.359-17.4v-.451c0-7.96-2.565-14.022-7.696-18.19-5.13-4.167-12.152-6.25-21.065-6.25H35.39v49.33zm142.83 80.078l69.094-162.634h32.58l69.094 162.634h-37.075l-14.717-36.266h-68.083l-14.717 36.266H178.22zm63.476-67.577H284.5l-21.346-52.371-21.458 52.371zm170.356 67.577v-161.508h35.39v129.184h80.327v32.324H412.052zm180.692 0v-161.508h38.198l42.354 68.365 42.355-68.365h38.198v161.508h-35.277v-105.42l-45.276 68.928h-.898l-44.94-68.252v104.744h-34.714zm237.988 0v-161.508H952.18v31.648h-86.283v32.775h75.947v31.535h-75.947v33.901h87.518v31.649H830.732zm192.488 0v-161.508h73.588c20.372 0 36.026 5.481 46.96 16.444 9.213 9.235 13.82 21.511 13.82 36.829v.563c0 13.065-3.184 23.708-9.55 31.93-6.366 8.222-14.68 14.247-24.941 18.076l39.321 57.666h-41.456l-34.49-51.696h-27.862v51.696h-35.39zm35.39-83.007h35.95c8.764 0 15.486-2.083 20.167-6.25 4.681-4.168 7.022-9.705 7.022-16.613v-.45c0-7.66-2.453-13.422-7.359-17.289-4.906-3.867-11.74-5.8-20.503-5.8h-35.277v46.402z" fill="#09091A"/><path d="M575.351 471.522s70.232-.064 117.537-39.195c24.021-19.87 42.13-49.815 42.13-94.94 0-34.687-10.7-60.395-26.562-79.447-45.407-54.541-106.57-53.26-133.105-54.541-26.533-1.283-146.54 0-146.54 0V471.69l-192.333-.17V29H594.28c52.51 0 99.422 7.345 140.739 22.034 41.316 14.69 76.322 35.398 105.02 62.125 28.697 26.727 50.78 58.656 66.248 95.788 15.468 37.132 23.202 78.344 23.202 123.636 0 53.454-9.158 98.134-27.476 136.49-18.318 38.357-43.555 70.49-75.712 96.4-32.158 25.911-69.708 45.395-112.653 58.453-42.944 13.057-89.043 19.586-138.297 19.586h-146.54l-.618 366.887-191.715-129.602V643.512h191.715V471.69l147.158-.17z" stroke="#09091A" stroke-width="57.6"/></g></svg>