<svg xmlns="http://www.w3.org/2000/svg" width="1000" height="758.995"><path d="M1000 325.903H636.265v-93.1H1000v93.1z" style="marker:none" fill="#e669a2" color="#000" overflow="visible"/><path d="M952.756 325.903H636.265V93.05h316.49v232.852z" style="marker:none" fill="#f3be26" color="#000" overflow="visible"/><path d="M821.998 325.903H636.265V0h185.733v325.903z" style="marker:none" fill="#ee9c34" color="#000" overflow="visible"/><path d="M858.539 325.903H636.265V36.366h222.274v289.537z" style="marker:none" fill="#f3bc87" color="#000" overflow="visible"/><path d="M636.213 36.42v289.453h185.765V36.421H636.213z" style="marker:none" fill="#e3721c" color="#000" overflow="visible"/><path d="M450.016 325.903h186.249v46.555H450.016v-46.555z" style="marker:none" fill="#ad1b02" color="#000" overflow="visible"/><path d="M636.213 93v232.873h222.432V93H636.213z" style="marker:none" fill="#e88d14" color="#000" overflow="visible"/><path d="M636.213 93v232.873h185.765V93H636.213z" style="marker:none" fill="#d85604" color="#000" overflow="visible"/><path d="M752.414 325.903h-116.15V186.14h116.15v139.762z" style="marker:none" fill="#c14303" color="#000" overflow="visible"/><path d="M636.213 232.87v93.003h316.65V232.87h-316.65z" style="marker:none" fill="#db4e18" color="#000" overflow="visible"/><path d="M636.213 232.87v93.003h222.432V232.87H636.213z" style="marker:none" fill="#d1390d" color="#000" overflow="visible"/><path d="M636.213 232.87v93.003h185.765V232.87H636.213z" style="marker:none" fill="#c22303" color="#000" overflow="visible"/><path d="M636.213 232.87v93.003h116.315V232.87H636.213z" style="marker:none" fill="#ad1b02" color="#000" overflow="visible"/><path d="M676.76 501.248c-31.69 5.634-48.591 29.578-48.591 71.127 0 42.253 22.535 70.422 55.634 70.422 16.197 0 30.282-5.633 59.859-20.422v34.507c-35.916 16.901-57.042 21.127-85.211 21.127-31.69 0-54.226-7.747-71.831-26.76-18.31-18.31-28.17-42.254-28.17-69.72 0-59.858 45.071-101.408 110.564-101.408 42.958 0 73.24 20.423 73.24 49.296 0 19.014-14.085 32.395-34.508 32.395-10.563 0-19.014-3.522-30.985-9.86M518.31 581.53c28.873-35.916 39.436-50.704 39.436-68.31s-14.084-33.099-33.802-33.099c-11.268 0-21.831 6.338-26.76 11.972v73.944L450 629.417V485.755h-45.07l-74.648 123.24v-123.24H304.93l-68.31 15.493v17.606l37.324 3.52v152.818h47.183l71.83-118.31v118.31h52.818M93.662 651.248h10.563c38.029 0 59.155-23.24 59.155-69.718 0-38.733-16.901-59.86-48.591-59.86-4.226 0-10.564.705-21.127 2.818v126.76zm0 83.099l30.986 7.042v17.606H2.817v-17.606l28.169-7.042V521.67H0v-17.606l73.944-22.535h19.718v25.352c34.507-21.127 46.479-24.648 64.789-24.648 40.845 0 71.83 38.028 71.83 90.845 0 60.564-41.549 102.113-104.929 102.113-7.042 0-19.014-.704-31.69-1.409"/></svg>