<svg width="250" height="61" viewBox="0 0 250 61" xmlns="http://www.w3.org/2000/svg"><g fill="none"><path d="M.75 13.113S6.934 38.59 7.921 42.727c1.152 4.827 3.228 6.603 9.213 5.405l3.861-15.796c.98-3.924 1.636-6.721 2.265-10.713h.11c.442 4.03 1.072 6.8 1.877 10.726 0 0 1.572 7.172 2.377 10.938.807 3.765 3.054 6.139 8.916 4.847l9.2-35.019h-7.428l-3.141 15.14c-.845 4.407-1.611 7.851-2.202 11.883h-.105c-.537-3.992-1.22-7.299-2.079-11.593l-3.27-15.43h-7.74l-3.5 15.042c-.99 4.57-1.918 8.261-2.507 12.156h-.107a429.373 429.373 0 0 0-2.279-12.731S9.304 16.824 8.574 13.115l-7.823.001-.001-.003zm70.82 0V48.13h7.073V13.11H71.57v.002zm99.617 0v25.833c0 3.562.666 6.057 2.093 7.582 1.246 1.333 3.299 2.197 5.758 2.197 2.091 0 4.149-.399 5.118-.762l-.09-5.557c-.722.178-1.552.321-2.688.321-2.409 0-3.217-1.551-3.217-4.75v-9.883h6.16v-6.7h-6.16v-8.281h-6.975zM55.763 21.23c-4.395 0-7.885 1.24-9.787 2.346l1.392 4.792c1.741-1.104 4.513-2.017 7.137-2.017 4.345-.011 5.055 2.47 5.055 4.061v.377c-9.467-.014-15.448 3.28-15.448 9.994 0 4.099 3.045 7.94 8.338 7.94 3.259 0 5.984-1.306 7.618-3.4h.16s1.081 4.547 7.04 2.808c-.313-1.892-.415-3.91-.415-6.34v-9.355c0-5.962-2.532-11.206-11.09-11.206zm42.31 0c-4.426 0-6.415 2.255-7.62 4.168h-.105v-3.574h-6.75v26.308h7.11V32.704c0-.723.082-1.488.334-2.154.589-1.553 2.026-3.37 4.321-3.37 2.87 0 4.212 2.439 4.212 5.958v14.994h7.103V32.517c0-.69.094-1.522.296-2.133.584-1.766 2.134-3.204 4.267-3.204 2.909 0 4.305 2.396 4.305 6.538v14.414h7.108V32.639c0-8.172-4.127-11.407-8.786-11.407-2.063 0-3.692.52-5.164 1.429-1.238.763-2.345 1.848-3.314 3.276h-.105c-1.126-2.835-3.77-4.705-7.213-4.705h.001zm39.047 0c-4.395 0-7.883 1.24-9.787 2.346l1.394 4.792c1.739-1.104 4.512-2.017 7.135-2.017 4.342-.011 5.054 2.47 5.054 4.061v.377c-9.466-.014-15.447 3.28-15.447 9.994 0 4.099 3.046 7.94 8.342 7.94 3.256 0 5.983-1.306 7.613-3.4h.16s1.082 4.547 7.042 2.808c-.314-1.892-.414-3.91-.414-6.34v-9.355c0-5.962-2.533-11.206-11.092-11.206zm29.529 0c-2.723 0-5.821 1.767-7.121 5.555h-.199v-4.962h-6.4v26.308h7.296v-13.47c0-.727.044-1.36.158-1.942.54-2.821 2.687-4.625 5.768-4.625.846 0 1.451.092 2.106.187v-6.888a6.995 6.995 0 0 0-1.608-.163zM59.789 35.45v3.283c0 .485-.042.986-.176 1.424-.548 1.823-2.426 3.363-4.773 3.363-1.958 0-3.513-1.117-3.513-3.48 0-3.614 3.957-4.613 8.462-4.59zm81.356 0v3.283c0 .485-.043.986-.175 1.424-.548 1.823-2.425 3.363-4.773 3.363-1.958 0-3.513-1.117-3.513-3.48 0-3.614 3.957-4.613 8.462-4.59z" fill="#007DC6"/><path d="M222.563.448c-2.283 0-4.098 1.282-4.098 2.843l1.387 15.787c.153.951 1.312 1.685 2.713 1.685 1.403-.002 2.558-.735 2.714-1.685l1.394-15.787c0-1.56-1.82-2.843-4.107-2.843h-.003zm-22.598 12.664c-1.185.028-2.532.93-3.389 2.424-1.145 1.988-.942 4.21.398 4.99l14.29 6.69c.893.334 2.106-.303 2.808-1.52.705-1.224.65-2.599-.092-3.209l-12.907-9.101a2.076 2.076 0 0 0-1.107-.274h-.001zm45.197 0a2.07 2.07 0 0 0-1.106.274l-12.909 9.101c-.738.61-.793 1.985-.09 3.208.704 1.218 1.913 1.855 2.806 1.521l14.296-6.69c1.346-.78 1.54-3.002.401-4.99-.86-1.493-2.209-2.396-3.394-2.424h-.004zm-33.364 20.829a1.44 1.44 0 0 0-.532.09l-14.29 6.683c-1.34.783-1.543 3.005-.398 4.996 1.142 1.984 3.156 2.928 4.496 2.15l12.908-9.095c.743-.618.797-1.992.092-3.214l.006.003c-.57-.996-1.48-1.602-2.282-1.613zm21.537 0c-.8.01-1.708.618-2.28 1.613l.005-.003c-.702 1.222-.648 2.597.09 3.214l12.909 9.095c1.338.778 3.353-.166 4.5-2.15 1.138-1.99.945-4.213-.4-4.996l-14.293-6.683a1.438 1.438 0 0 0-.531-.09zm-10.774 6.543c-1.398.001-2.554.732-2.707 1.68l-1.387 15.787c0 1.564 1.815 2.843 4.098 2.843 2.288 0 4.106-1.28 4.106-2.843l-1.39-15.786c-.156-.949-1.31-1.68-2.715-1.681h-.005z" fill="#FFC220"/></g></svg>