<svg version="1.0" xmlns="http://www.w3.org/2000/svg" width="417.333" height="417.333" viewBox="0 0 313 313"><path d="M7.2 21.1c-1.6.6-1.8 2.6-2 18.5-.1 9.9.1 18.4.6 19 .4.6 12.4 7.1 26.7 14.4 14.3 7.3 26.2 13.4 26.4 13.6.2.2-11.2.3-25.4.3-16.4 0-26.1.4-27 1.1-.9.7-1.2 5.6-1.3 17.8-.1 9.2.1 17.4.4 18.4.4 1.3 16.4 9.9 48.4 25.9l5.5 2.8H33.4c-19.7.1-26.4.4-27.1 1.3-1 1.3-1.6 33-.7 36 .3 1 6.1 4.6 13.2 8.2 7 3.5 18.6 9.5 25.9 13.3l13.2 6.8-25.2.5c-13.9.3-25.7.8-26.2 1.2-1.7 1-1.9 36.2-.3 37.6.7.5 11.2 6 23.3 12.2 12.1 6.2 26.7 13.7 32.4 16.7l10.5 5.3h55.8c51.7 0 55.9-.1 56.5-1.7.7-1.9 1-36 .2-36.6-.6-.6-30.9-16.2-50.5-26-14-7.1-17.9-8.6-21.5-8.6-2.4.1-11.5.1-20.1 0L77 219v-26h83.8c63.8 0 84.1-.3 85-1.2.8-.8 1.2-6.6 1.2-19.4v-18.2l-15.3-7.7c-8.3-4.3-23.4-12-33.4-17.1l-18.1-9.4H74.9l-23.8-12c-13-6.6-24.5-12.6-25.4-13.3-1.4-1 26.3-1.2 139-1.1 77.5 0 141.6-.4 142.6-.8 1.5-.8 1.7-2.7 1.7-18.6 0-9.7-.4-18.2-.8-18.8-.4-.6-15.5-8.7-33.6-17.9l-33-16.8-116.4-.1c-64-.1-117.1.2-118 .5zm257.3 18.8c13.2 6.8 24.4 12.6 24.8 13.1.4.4-47.7.7-107 .7H74.5L50 41.2c-13.5-6.8-24.8-12.8-25.3-13.1-.4-.4 48-.7 107.5-.7l108.3.1 24 12.4zM40.8 44.1c15.2 7.8 28 14.4 28.4 14.8.9.7 1.4 23.9.6 24.7-.4.3-13.4-6-29-14L12.5 55.1l-.3-12.5c-.1-6.9 0-12.6.3-12.6.4 0 13.1 6.4 28.3 14.1zm261 29.6l.3 13.2H77V60.5h224.5l.3 13.2zM21.6 100.6c4.9 2.5 17.8 9.1 28.7 14.6C61.9 121 70 125.7 70 126.6c.4 13.5 0 22.9-1 22.9-.6 0-13.7-6.3-29-14l-27.9-14-.1-12.8c0-7 .2-12.7.3-12.7.2 0 4.4 2.1 9.3 4.6zm181.7 38.9c13.8 7 25.4 12.9 25.6 13.1.2.2-33.8.4-75.7.4H77v-12.8c0-7.1.2-13.1.4-13.3.2-.2 23-.4 50.5-.3l50.1.1 25.3 12.8zm36.4 20.9c.4.4.7 6.3.8 13.1V186h-166l-25.2-12.7C35.4 166.2 24 160.3 24 160c0-.8 215-.4 215.7.4zm-169.5 35c.2 2.3.2 8 0 12.8l-.3 8.6-29-14.6L12 187.5v-25.6l29 14.7 28.9 14.8.3 4zm70.9 43.2c13.7 7 24.7 12.9 24.5 13.3-.2.3-20.9.6-45.9.5l-45.4-.1-24.9-12.7c-13.7-7.1-25.1-13-25.3-13.2-.2-.2 20.4-.4 45.8-.4h46.3l24.9 12.6zm-71.2 19c.2.2.3 1.8.3 3.6s0 7.5-.1 12.6l-.1 9.3-29-14.8-29-14.8v-25.4l28.8 14.6c15.8 8 28.9 14.7 29.1 14.9zm108.7 14.3c0 12.3-.1 13-2 13.3-1.2.2-23.9.3-50.6.2H77.5l-.3-13.2-.3-13.2h101.7v12.9z"/></svg>